<svg width="196" height="60" viewBox="0 0 196 60" fill="none" xmlns="http://www.w3.org/2000/svg">
<path fill-rule="evenodd" clip-rule="evenodd" d="M60 53.1596C56.3422 52.7693 52.8239 52.1432 49.4467 51.2776L53.9406 37.8299L60 39.3545V53.1596ZM60 31.6821V34.9581L45.2478 31.2436L46.2608 28.1944L60 31.6821ZM18.6501 11.3553C16.8945 12.8913 16.0168 14.7454 16.0168 16.9202C16.0168 19.1038 16.8945 20.9642 18.6501 22.5003C20.3941 24.0363 22.5065 24.803 24.9873 24.803C27.4551 24.803 29.5603 24.0363 31.3043 22.5003C33.0483 20.9642 33.9203 19.1038 33.9203 16.9202C33.9203 14.7454 33.0483 12.8913 31.3043 11.3553C29.5603 9.80917 27.4551 9.03609 24.9873 9.03609C22.5065 9.03609 20.3941 9.80917 18.6501 11.3553ZM39.0214 0H60V27.2211L47.5861 24.0895L51.9145 11.0309L46.9976 9.70144L38.948 34.033L48.9675 36.5803L45.763 46.3299H45.7442L44.5844 49.8493C19.3134 42.3125 6.30956 25.6952 5.57281 0H32.9994L29.4624 5.09342L33.8642 7.49502L39.0214 0Z" fill="#3B8A82"/>
<path fill-rule="evenodd" clip-rule="evenodd" d="M60 49.0554C56.6917 48.6952 53.5097 48.1174 50.4552 47.3187L54.5196 34.9092L60 36.3161V49.0554ZM60 29.236V32.2592L46.6576 28.8314L47.5738 26.0176L60 29.236ZM22.6016 10.4786C21.0138 11.896 20.22 13.607 20.22 15.6138C20.22 17.6289 21.0138 19.3457 22.6016 20.7631C24.179 22.1805 26.0895 22.8881 28.3332 22.8881C30.5652 22.8881 32.4692 22.1805 34.0465 20.7631C35.6239 19.3457 36.4126 17.6289 36.4126 15.6138C36.4126 13.607 35.6239 11.896 34.0465 10.4786C32.4692 9.05184 30.5652 8.33845 28.3332 8.33845C26.0895 8.33845 24.179 9.05184 22.6016 10.4786ZM41.0262 0H60V25.1194L48.7724 22.2296L52.6872 10.1792L48.2401 8.95244L40.9598 31.4054L50.0218 33.7561L47.1235 42.753H47.1066L46.0576 46.0007C23.2016 39.0457 11.4404 23.7114 10.774 0H35.5796L32.3807 4.70017L36.3618 6.91636L41.0262 0Z" fill="#6BB0A9"/>
<path fill-rule="evenodd" clip-rule="evenodd" d="M6.10352e-05 16.417C1.73518 19.1394 3.52182 21.7259 5.36131 24.1763L6.10352e-05 28.0159V16.417ZM6.10352e-05 40.4118L11.8165 31.9204C14.3609 34.6644 16.9934 37.1644 19.7113 39.4204L8.36389 52.1098L16.2058 58.2588L27.8664 45.244C32.886 48.3134 38.1673 50.6126 43.7075 52.1429L43.2222 53.7036H43.2046L41.2444 60.0001H6.10352e-05V40.4118ZM46.2926 60.0001L48.4099 53.2486C49.4619 53.4444 50.5206 53.6223 51.5847 53.785V60.0001H46.2926ZM56.4783 60.0001V54.273C57.6468 54.3607 58.8207 54.409 60 54.4205V60.0001H56.4783Z" fill="#BE3671"/>
<path fill-rule="evenodd" clip-rule="evenodd" d="M4.53512e-05 43.1685L10.8669 35.6677C13.0691 38.0256 14.5517 39.7879 16.9041 41.7264L6.50159 53.2486L14.1177 59.9718L25.5418 48.0782C29.8864 50.7156 33.0346 51.9337 37.8297 53.2486L35.0155 59.9301L4.53512e-05 60V43.1685Z" fill="#FF3E91"/>
<path d="M4.08673 25.5049C2.4946 23.3993 1.50178 21.9102 0 19.5709V28.3387L4.08673 25.5049Z" fill="#FF3E91"/>
<path d="M56.3945 56.1889V60H60V56.1889C58.9793 56.1791 57.4059 56.2643 56.3945 56.1889Z" fill="#FF3E91"/>
<path d="M47.647 55.2056L45.9597 59.9301H51.1764V55.2056H47.647Z" fill="#FF3E91"/>
<path d="M68.02 10.8H78.28C80.944 10.8 83.296 11.34 85.336 12.42C87.376 13.476 88.96 14.964 90.088 16.884C91.216 18.78 91.78 20.952 91.78 23.4C91.78 25.848 91.216 28.032 90.088 29.952C88.96 31.848 87.376 33.336 85.336 34.416C83.296 35.472 80.944 36 78.28 36H68.02V10.8ZM78.136 33.696C80.344 33.696 82.276 33.264 83.932 32.4C85.588 31.512 86.872 30.3 87.784 28.764C88.696 27.204 89.152 25.416 89.152 23.4C89.152 21.384 88.696 19.608 87.784 18.072C86.872 16.512 85.588 15.3 83.932 14.436C82.276 13.548 80.344 13.104 78.136 13.104H70.684V33.696H78.136ZM115.582 33.696V36H97.7622V10.8H115.042V13.104H100.426V22.068H113.458V24.336H100.426V33.696H115.582ZM139.452 23.4H142.008V33.012C140.832 34.044 139.44 34.836 137.832 35.388C136.224 35.94 134.532 36.216 132.756 36.216C130.236 36.216 127.968 35.664 125.952 34.56C123.936 33.456 122.352 31.932 121.2 29.988C120.048 28.02 119.472 25.824 119.472 23.4C119.472 20.976 120.048 18.792 121.2 16.848C122.352 14.88 123.936 13.344 125.952 12.24C127.968 11.136 130.248 10.584 132.792 10.584C134.712 10.584 136.476 10.896 138.084 11.52C139.692 12.12 141.048 13.02 142.152 14.22L140.496 15.912C138.504 13.944 135.972 12.96 132.9 12.96C130.86 12.96 129.012 13.416 127.356 14.328C125.724 15.216 124.44 16.464 123.504 18.072C122.568 19.656 122.1 21.432 122.1 23.4C122.1 25.368 122.568 27.144 123.504 28.728C124.44 30.312 125.724 31.56 127.356 32.472C128.988 33.384 130.824 33.84 132.864 33.84C135.456 33.84 137.652 33.192 139.452 31.896V23.4ZM170.499 10.8L159.339 36H156.711L145.551 10.8H148.431L158.079 32.688L167.799 10.8H170.499ZM189.187 29.268H175.147L172.123 36H169.351L180.871 10.8H183.499L195.019 36H192.211L189.187 29.268ZM188.215 27.108L182.167 13.572L176.119 27.108H188.215Z" fill="white"/>
<path d="M103.79 46.538C104.582 46.67 105.188 46.952 105.608 47.384C106.028 47.816 106.238 48.398 106.238 49.13C106.238 50.378 105.776 51.338 104.852 52.01C103.94 52.67 102.644 53 100.964 53H95.4379L97.9579 40.4H103.052C104.216 40.4 105.122 40.622 105.77 41.066C106.43 41.51 106.76 42.146 106.76 42.974C106.76 43.91 106.49 44.684 105.95 45.296C105.41 45.908 104.69 46.322 103.79 46.538ZM97.3819 46.34H101.9C103.172 46.34 104.192 46.058 104.96 45.494C105.74 44.93 106.13 44.12 106.13 43.064C106.13 42.368 105.854 41.84 105.302 41.48C104.762 41.12 103.988 40.94 102.98 40.94H98.4619L97.3819 46.34ZM101.054 52.46C102.518 52.46 103.646 52.178 104.438 51.614C105.23 51.038 105.626 50.222 105.626 49.166C105.626 48.35 105.344 47.762 104.78 47.402C104.228 47.042 103.382 46.862 102.242 46.862H97.2739L96.1579 52.46H101.054ZM123.842 49.31H116.264L113.834 53H113.15L121.502 40.4H122.096L125.408 53H124.796L123.842 49.31ZM123.698 48.788L121.7 41.066L116.606 48.788H123.698ZM146.833 40.4L144.313 53H143.809L137.167 41.39L134.863 53H134.251L136.771 40.4H137.275L143.917 52.01L146.221 40.4H146.833ZM160.647 46.196L165.327 53H164.625L160.197 46.592L156.597 49.67L155.931 53H155.319L157.839 40.4H158.451L156.777 48.788L166.623 40.4H167.469L160.647 46.196Z" fill="white"/>
</svg>
